# xmcd
#
# Track frame offsets:
#	150
#	17525
#	47420
#	76712
#	104260
#	131260
#	153155
#
# Disc length: 2352 seconds
#
# Revision: 1
# Processed by: cddbd v1.5.2PL0 Copyright (c) Steve Scherf et al.
# Submitted via: audiograbber 1.83.01
#
DISCID=3c092e07
DTITLE=The Source - Clouds
DYEAR=1997
DGENRE=Pop
TTITLE0=Clouds (Now Voyager Radio Edit)
TTITLE1=Clouds (Boris Dlugosch Funk Mix)
TTITLE2=Clouds (Jon The Dentist Vocal Mix)
TTITLE3=Clouds (Sharp DTPM Dub)
TTITLE4=Clouds (Truelove's Acid Rain Mix)
TTITLE5=Clouds (Now Voyager Dub)
TTITLE6=Clouds (Truelove's Acid Rain Dub)
EXTD=
EXTT0=
EXTT1=
EXTT2=
EXTT3=
EXTT4=
EXTT5=
EXTT6=
PLAYORDER=
